# xmcd
#
# Track frame offsets:
#	150
#	13887
#	27711
#	43218
#	57037
#	77098
#	90353
#	104960
#	122402
#	138262
#	153914
#	168101
#
# Disc length: 2403 seconds
#
# Revision: 1
# Processed by: cddbd v1.5.1PL2 Copyright (c) Steve Scherf et al.
# Submitted via: EasyCDDAExtractor 8.2.3.1
#
DISCID=9609610c
DTITLE=Jacó e Jacózinho - As 12 Mais
DYEAR=1980
DGENRE=Sertanejo
TTITLE0=Empreitada perigosa
TTITLE1=Terra bruta
TTITLE2=Filho pobre
TTITLE3=Ninho de cobra
TTITLE4=Gato de três cores
TTITLE5=Cavalo enxuto
TTITLE6=Tropa saudosa
TTITLE7=Os filhos da Bahia
TTITLE8=Caboclinha
TTITLE9=Minha mãe é uma santa
TTITLE10=Menina moça
TTITLE11=Preto e branco
EXTD=
EXTT0=
EXTT1=
EXTT2=
EXTT3=
EXTT4=
EXTT5=
EXTT6=
EXTT7=
EXTT8=
EXTT9=
EXTT10=
EXTT11=
PLAYORDER=
